<?xml version="1.0" encoding="utf-8"?>
<!-- Generator: Adobe Illustrator 27.0.1, SVG Export Plug-In . SVG Version: 6.00 Build 0)  -->
<svg version="1.1" id="Capa_1" xmlns="http://www.w3.org/2000/svg" xmlns:xlink="http://www.w3.org/1999/xlink" x="0px" y="0px"
	 viewBox="0 0 432 432" style="enable-background:new 0 0 432 432;" xml:space="preserve">
<g>
	<path d="M27.34,419.96c-0.26,0-0.54-0.02-0.81-0.05c-3.72-0.45-6.37-3.82-5.92-7.53c8.54-71.52,22.88-142.9,42.62-212.17
		c12.44-43.66,28.03-89.03,57.69-125.02c24.54-29.79,59.35-53.08,98.02-65.57C272.8-7.78,327.4-1.32,364.98,26.92
		c19.06,14.32,33.93,38.7,24.17,60.89c-9.02,20.53-33.32,26.4-50.82,29.03c-52.94,7.95-106.41,6.71-158.93-3.67
		c-3.66-0.72-6.05-4.29-5.33-7.95c0.73-3.67,4.31-6.07,7.96-5.33c50.98,10.08,102.89,11.28,154.28,3.57
		c22.77-3.42,35.62-10.12,40.44-21.09c6.73-15.32-5.61-33.87-19.92-44.62c-34.08-25.6-84.09-31.3-133.75-15.24
		c-36.23,11.71-68.81,33.48-91.74,61.3c-28.07,34.08-43.08,77.87-55.11,120.12c-19.55,68.59-33.74,139.26-42.2,210.07
		C33.65,417.43,30.73,419.96,27.34,419.96z"/>
	<path d="M222.15,87.9c-0.67,0-1.35-0.02-2.02-0.05c-10.88-0.59-21.48-5.98-28.37-14.43c-2.36-2.9-1.92-7.16,0.97-9.52
		c2.91-2.37,7.17-1.92,9.53,0.97c4.52,5.54,11.47,9.08,18.59,9.46c7.21,0.35,14.43-2.39,19.52-7.4c2.65-2.62,6.94-2.61,9.57,0.06
		c2.62,2.66,2.6,6.95-0.07,9.57C242.61,83.75,232.37,87.9,222.15,87.9z"/>
	<path d="M327.01,89.19c-0.52,0-1.04-0.01-1.56-0.04c-10.91-0.59-20.95-7.36-25.58-17.25c-1.59-3.39-0.13-7.42,3.26-9
		c3.39-1.6,7.42-0.13,9,3.26c2.51,5.35,8.15,9.15,14.05,9.48c6.06,0.28,11.92-2.86,14.99-7.9c1.94-3.18,6.1-4.22,9.3-2.26
		c3.2,1.94,4.21,6.11,2.27,9.3C347.32,83.64,337.35,89.19,327.01,89.19z"/>
	<path d="M357.35,432c-0.03,0-0.07,0-0.1,0c-3.74-0.06-6.72-3.13-6.67-6.87c1.55-104.34-0.34-210.13-5.63-314.43
		c-0.19-3.74,2.68-6.92,6.42-7.1c3.74-0.22,6.92,2.68,7.11,6.42c5.3,104.6,7.2,210.69,5.65,315.31
		C364.07,429.03,361.05,432,357.35,432z"/>
	<path d="M194.28,286.57c-1.86,0-3.65-0.06-5.34-0.12c-43.88-1.52-89.26-3.09-133.25-12.76c-13.51-2.97-29.89-8.25-36.66-22.88
		c-4.73-10.22-3.43-23.28,3.66-36.78c10.41-19.85,28.55-35.42,49.75-42.72c3.54-1.21,7.39,0.67,8.6,4.2s-0.66,7.39-4.2,8.61
		c-17.96,6.18-33.33,19.38-42.16,36.2c-2.95,5.61-7.31,16.3-3.37,24.8c4.27,9.22,16.82,13.05,27.28,15.34
		c42.78,9.4,87.53,10.95,130.81,12.45c5.51,0.2,11.75,0.41,16.24-1.92c5.08-2.62,8.65-9.18,9.11-16.73
		c0.48-7.86-1.91-16.11-4.23-24.08c-1.04-3.59,1.02-7.35,4.61-8.39c3.63-1.04,7.35,1.02,8.39,4.62c2.52,8.66,5.37,18.48,4.74,28.68
		c-0.76,12.39-7.05,23.09-16.4,27.93C206.12,285.99,199.91,286.57,194.28,286.57z"/>
	<path d="M274.47,285.51c-5.8,0-11.59-0.03-17.39-0.12c-6.14-0.09-15.44-0.22-22.94-5.25c-9.05-6.07-13.56-18.12-11.52-30.7
		c1.67-10.27,6.99-19.1,11.68-26.89c1.92-3.21,6.09-4.24,9.29-2.31c3.21,1.93,4.24,6.09,2.31,9.29c-4.25,7.07-8.66,14.38-9.9,22.08
		c-0.99,6.04,0.4,13.72,5.69,17.28c3.85,2.58,9.34,2.86,15.6,2.95c11.63,0.18,23.27,0.12,34.92,0.05
		c28.7-0.19,61.24-0.4,88.53-14.24c9.94-5.05,16.51-10.99,19.51-17.67c4.6-10.24,1.18-24.19-8.31-33.92
		c-8.01-8.21-19.99-14.07-36.62-17.9c-3.64-0.84-5.92-4.48-5.08-8.12c0.84-3.64,4.48-5.89,8.12-5.08
		c19.23,4.44,33.38,11.51,43.27,21.64c13.29,13.62,17.8,33.74,10.97,48.93c-4.3,9.57-12.97,17.71-25.74,24.19
		c-30.13,15.29-65.86,15.53-94.57,15.71C286.35,285.48,280.41,285.51,274.47,285.51z"/>
</g>
</svg>
